<svg id="bowls" enable-background="new 0 0 300 300" height="512" viewBox="0 0 300 300" width="512" xmlns="http://www.w3.org/2000/svg"><g><path d="m192 147.675c-28.969 0-78 4.213-78 20 0 8.329 1.765 16.575 5.09 24.146-3.752-.129-6.527-.146-7.645-.146-5.879 0-57.445.436-57.445 15.555 0 6.046 1.295 12.013 3.662 17.529-11.94.619-27.662 2.908-27.662 10.699 0 15.559 12.658 28.217 28.217 28.217h15.566c9.548 0 17.988-4.779 23.096-12.057.522.018 1.04.057 1.566.057h26c17.462 0 32.56-10.147 39.823-24.831 3.2.523 6.461.831 9.732.831h36c33.086 0 60-26.916 60-60 0-15.787-49.031-20-78-20zm0 8c43.109 0 68.281 7.756 69.977 12-1.695 4.244-26.867 12-69.977 12-43.344 0-68.544-7.839-69.992-11.871 0-.019-.003-.037-.003-.055 1.429-4.229 26.633-12.074 69.995-12.074zm-80.555 44c29.055 0 45.633 4.705 49.051 7.555-3.418 2.852-19.996 7.557-49.051 7.557s-45.635-4.705-49.053-7.557c3.419-2.85 19.999-7.555 49.053-7.555zm-45.445 32.865c12.594 0 21.287 1.521 25.576 2.918-4.289 1.398-12.98 2.92-25.576 2.92s-21.287-1.521-25.576-2.92c4.289-1.397 12.982-2.918 25.576-2.918zm7.783 23.135h-15.566c-8.252 0-15.342-4.983-18.48-12.086 8.28 2.395 19.809 2.79 26.263 2.79s17.984-.395 26.263-2.79c-3.138 7.103-10.227 12.086-18.48 12.086zm50.662-12h-23.674c.794-2.602 1.228-5.359 1.228-8.217 0-9.746-24.608-10.892-35.619-10.916-1.382-2.555-2.452-5.269-3.186-8.078 15.102 6.08 43.94 6.322 48.25 6.322 4.305 0 33.097-.241 48.21-6.306-4.108 15.622-18.312 27.195-35.209 27.195zm85.555-24h-36c-2.279 0-4.544-.201-6.788-.494 1.066-3.809 1.679-7.806 1.679-11.951 0-10.23-23.599-13.734-40.688-14.933-2.418-4.49-4.074-9.347-5.082-14.354 15.554 7.454 47.612 9.732 68.879 9.732 21.313 0 53.463-2.287 68.979-9.78-4.763 23.795-25.805 41.78-50.979 41.78z"/><path d="m59.005 48.878c2.362 0 4.277-1.915 4.277-4.276s-1.915-4.277-4.277-4.277-4.276 1.915-4.276 4.277 1.915 4.276 4.276 4.276z"/><path d="m58 131.675c2.209 0 4-1.791 4-4v-8c0-2.209-1.791-4-4-4s-4 1.791-4 4v8c0 2.209 1.791 4 4 4z"/><path d="m58 139.675c-2.209 0-4 1.791-4 4v8c0 2.209 1.791 4 4 4s4-1.791 4-4v-8c0-2.209-1.791-4-4-4z"/><path d="m42 139.675h8c2.209 0 4-1.791 4-4s-1.791-4-4-4h-8c-2.209 0-4 1.791-4 4s1.791 4 4 4z"/><path d="m62 135.675c0 2.209 1.791 4 4 4h8c2.209 0 4-1.791 4-4s-1.791-4-4-4h-8c-2.209 0-4 1.791-4 4z"/><path d="m244 119.675c7.719 0 14-6.281 14-14s-6.281-14-14-14-14 6.281-14 14 6.281 14 14 14zm0-20c3.309 0 6 2.691 6 6s-2.691 6-6 6-6-2.691-6-6 2.691-6 6-6z"/><path d="m211.005 44.878c2.362 0 4.277-1.915 4.277-4.276s-1.915-4.277-4.277-4.277-4.276 1.915-4.276 4.277 1.915 4.276 4.276 4.276z"/><path d="m147.005 120.878c2.362 0 4.277-1.915 4.277-4.276s-1.915-4.277-4.277-4.277-4.276 1.915-4.276 4.277 1.915 4.276 4.276 4.276z"/></g></svg>