<svg xmlns="http://www.w3.org/2000/svg" width="16" height="18" viewBox="0 0 16 18">
  <path id="calendar_icon" data-name="calendar icon" d="M14.118,18H1.882A1.891,1.891,0,0,1,0,16.105V6.632H16v9.474A1.891,1.891,0,0,1,14.118,18Zm-1.412-4.263a.947.947,0,1,0,.941.947A.945.945,0,0,0,12.706,13.737ZM8,13.737a.947.947,0,1,0,.942.947A.945.945,0,0,0,8,13.737Zm-4.705,0a.947.947,0,1,0,.941.947A.945.945,0,0,0,3.294,13.737ZM12.706,9a.947.947,0,1,0,.941.947A.945.945,0,0,0,12.706,9ZM8,9a.947.947,0,1,0,.942.947A.945.945,0,0,0,8,9ZM3.294,9a.947.947,0,1,0,.941.947A.945.945,0,0,0,3.294,9ZM16,5.685H0V3.316A1.418,1.418,0,0,1,1.412,1.895H3.764V.947a.942.942,0,1,1,1.883,0v.947h4.705V.947a.941.941,0,1,1,1.882,0v.947h2.353A1.418,1.418,0,0,1,16,3.316V5.684Z" transform="translate(0 0)" fill="#656565"/>
</svg>
